<mxfile host="app.diagrams.net" modified="2022-05-08T09:16:49.602Z" agent="5.0 (Windows NT 10.0; Win64; x64) AppleWebKit/537.36 (KHTML, like Gecko) Chrome/101.0.4951.54 Safari/537.36" etag="Aada9NCIVOJBim86fsfw" version="18.0.2" type="github">
  <diagram id="SmUDofpjKYmt6EzFDzWJ" name="Page-1">
    <mxGraphModel dx="1730" dy="802" grid="1" gridSize="10" guides="1" tooltips="1" connect="1" arrows="1" fold="1" page="1" pageScale="1" pageWidth="850" pageHeight="1100" math="0" shadow="0">
      <root>
        <mxCell id="0" />
        <mxCell id="1" parent="0" />
        <mxCell id="qwt3i7MBUH2hLZk94wi9-2" style="edgeStyle=orthogonalEdgeStyle;rounded=0;orthogonalLoop=1;jettySize=auto;html=1;entryX=0.5;entryY=0;entryDx=0;entryDy=0;" edge="1" parent="1" source="qwt3i7MBUH2hLZk94wi9-1" target="qwt3i7MBUH2hLZk94wi9-3">
          <mxGeometry relative="1" as="geometry">
            <mxPoint x="420" y="200" as="targetPoint" />
          </mxGeometry>
        </mxCell>
        <mxCell id="qwt3i7MBUH2hLZk94wi9-1" value="הצגת דף ההרשמה" style="rounded=0;whiteSpace=wrap;html=1;" vertex="1" parent="1">
          <mxGeometry x="365" y="90" width="120" height="60" as="geometry" />
        </mxCell>
        <mxCell id="qwt3i7MBUH2hLZk94wi9-5" value="" style="edgeStyle=orthogonalEdgeStyle;rounded=0;orthogonalLoop=1;jettySize=auto;html=1;" edge="1" parent="1" source="qwt3i7MBUH2hLZk94wi9-3" target="qwt3i7MBUH2hLZk94wi9-4">
          <mxGeometry relative="1" as="geometry" />
        </mxCell>
        <mxCell id="qwt3i7MBUH2hLZk94wi9-3" value="קליטת שם משתמש וסיסמא" style="rounded=0;whiteSpace=wrap;html=1;" vertex="1" parent="1">
          <mxGeometry x="365" y="170" width="120" height="60" as="geometry" />
        </mxCell>
        <mxCell id="qwt3i7MBUH2hLZk94wi9-9" value="" style="edgeStyle=orthogonalEdgeStyle;rounded=0;orthogonalLoop=1;jettySize=auto;html=1;" edge="1" parent="1" source="qwt3i7MBUH2hLZk94wi9-4" target="qwt3i7MBUH2hLZk94wi9-8">
          <mxGeometry relative="1" as="geometry" />
        </mxCell>
        <mxCell id="qwt3i7MBUH2hLZk94wi9-13" value="" style="edgeStyle=orthogonalEdgeStyle;rounded=0;orthogonalLoop=1;jettySize=auto;html=1;" edge="1" parent="1" source="qwt3i7MBUH2hLZk94wi9-4" target="qwt3i7MBUH2hLZk94wi9-12">
          <mxGeometry relative="1" as="geometry" />
        </mxCell>
        <mxCell id="qwt3i7MBUH2hLZk94wi9-4" value="בדיקה שהשם משתמש לא קיים" style="rounded=0;whiteSpace=wrap;html=1;" vertex="1" parent="1">
          <mxGeometry x="365" y="250" width="120" height="60" as="geometry" />
        </mxCell>
        <mxCell id="qwt3i7MBUH2hLZk94wi9-10" style="edgeStyle=orthogonalEdgeStyle;rounded=0;orthogonalLoop=1;jettySize=auto;html=1;entryX=0;entryY=0.5;entryDx=0;entryDy=0;" edge="1" parent="1" source="qwt3i7MBUH2hLZk94wi9-8" target="qwt3i7MBUH2hLZk94wi9-3">
          <mxGeometry relative="1" as="geometry">
            <mxPoint x="225" y="160" as="targetPoint" />
            <Array as="points">
              <mxPoint x="220" y="205" />
              <mxPoint x="225" y="205" />
              <mxPoint x="225" y="200" />
            </Array>
          </mxGeometry>
        </mxCell>
        <mxCell id="qwt3i7MBUH2hLZk94wi9-8" value="מציג שגיאה מתאימה" style="whiteSpace=wrap;html=1;rounded=0;" vertex="1" parent="1">
          <mxGeometry x="165" y="250" width="120" height="60" as="geometry" />
        </mxCell>
        <mxCell id="qwt3i7MBUH2hLZk94wi9-15" style="edgeStyle=orthogonalEdgeStyle;rounded=0;orthogonalLoop=1;jettySize=auto;html=1;entryX=0.5;entryY=1;entryDx=0;entryDy=0;" edge="1" parent="1" source="qwt3i7MBUH2hLZk94wi9-12" target="qwt3i7MBUH2hLZk94wi9-8">
          <mxGeometry relative="1" as="geometry" />
        </mxCell>
        <mxCell id="qwt3i7MBUH2hLZk94wi9-22" value="" style="edgeStyle=orthogonalEdgeStyle;rounded=0;orthogonalLoop=1;jettySize=auto;html=1;entryX=0.5;entryY=0;entryDx=0;entryDy=0;" edge="1" parent="1" source="qwt3i7MBUH2hLZk94wi9-12" target="qwt3i7MBUH2hLZk94wi9-23">
          <mxGeometry relative="1" as="geometry">
            <mxPoint x="490" y="430" as="targetPoint" />
            <Array as="points">
              <mxPoint x="440" y="430" />
              <mxPoint x="600" y="430" />
            </Array>
          </mxGeometry>
        </mxCell>
        <mxCell id="qwt3i7MBUH2hLZk94wi9-12" value="בדיקה שהסיסמא מחילה אות קטנה אות גדולה סימן ומספר" style="whiteSpace=wrap;html=1;rounded=0;" vertex="1" parent="1">
          <mxGeometry x="365" y="370" width="120" height="60" as="geometry" />
        </mxCell>
        <mxCell id="qwt3i7MBUH2hLZk94wi9-21" value="" style="edgeStyle=orthogonalEdgeStyle;rounded=0;orthogonalLoop=1;jettySize=auto;html=1;" edge="1" parent="1" source="qwt3i7MBUH2hLZk94wi9-17" target="qwt3i7MBUH2hLZk94wi9-20">
          <mxGeometry relative="1" as="geometry" />
        </mxCell>
        <mxCell id="qwt3i7MBUH2hLZk94wi9-17" value="הכנסת השם משתמש והסיסמא למסד הנתונים" style="whiteSpace=wrap;html=1;rounded=0;" vertex="1" parent="1">
          <mxGeometry x="365" y="550" width="120" height="60" as="geometry" />
        </mxCell>
        <mxCell id="qwt3i7MBUH2hLZk94wi9-26" value="" style="edgeStyle=orthogonalEdgeStyle;rounded=0;orthogonalLoop=1;jettySize=auto;html=1;" edge="1" parent="1" source="qwt3i7MBUH2hLZk94wi9-20" target="qwt3i7MBUH2hLZk94wi9-25">
          <mxGeometry relative="1" as="geometry" />
        </mxCell>
        <mxCell id="qwt3i7MBUH2hLZk94wi9-20" value="שליחת השם משתמש והסיסמא לכל שאר המחשבים" style="whiteSpace=wrap;html=1;rounded=0;" vertex="1" parent="1">
          <mxGeometry x="365" y="650" width="120" height="60" as="geometry" />
        </mxCell>
        <mxCell id="qwt3i7MBUH2hLZk94wi9-24" value="" style="edgeStyle=orthogonalEdgeStyle;rounded=0;orthogonalLoop=1;jettySize=auto;html=1;" edge="1" parent="1" source="qwt3i7MBUH2hLZk94wi9-23" target="qwt3i7MBUH2hLZk94wi9-17">
          <mxGeometry relative="1" as="geometry" />
        </mxCell>
        <mxCell id="qwt3i7MBUH2hLZk94wi9-23" value="הצפנת הסיסמא" style="rounded=0;whiteSpace=wrap;html=1;" vertex="1" parent="1">
          <mxGeometry x="370" y="460" width="120" height="60" as="geometry" />
        </mxCell>
        <mxCell id="qwt3i7MBUH2hLZk94wi9-25" value="הצגת מסך הכניסה" style="whiteSpace=wrap;html=1;rounded=0;" vertex="1" parent="1">
          <mxGeometry x="365" y="790" width="120" height="60" as="geometry" />
        </mxCell>
      </root>
    </mxGraphModel>
  </diagram>
</mxfile>
